<mxfile host="app.diagrams.net" modified="2023-09-30T23:58:25.256Z" agent="Mozilla/5.0 (Macintosh; Intel Mac OS X 10_15_7) AppleWebKit/537.36 (KHTML, like Gecko) Chrome/117.0.0.0 Safari/537.36" etag="V-9gM1_JWLytztJbPvlz" version="21.7.5" type="github">
  <diagram name="Page-1" id="3XSQEVLv0cIw_9h6EMbb">
    <mxGraphModel dx="1508" dy="361" grid="1" gridSize="10" guides="1" tooltips="1" connect="1" arrows="1" fold="1" page="1" pageScale="1" pageWidth="850" pageHeight="1100" math="0" shadow="0">
      <root>
        <mxCell id="0" />
        <mxCell id="1" parent="0" />
        <mxCell id="RG4MJviADbERtLvWTuo3-1" value="OMS Core" style="whiteSpace=wrap;html=1;aspect=fixed;fillStyle=auto;strokeColor=default;dashed=1;" parent="1" vertex="1">
          <mxGeometry x="-750" y="240" width="280" height="280" as="geometry" />
        </mxCell>
        <mxCell id="RG4MJviADbERtLvWTuo3-2" value="Ordering Controller" style="whiteSpace=wrap;html=1;aspect=fixed;" parent="1" vertex="1">
          <mxGeometry x="-650" y="407" width="80" height="80" as="geometry" />
        </mxCell>
        <mxCell id="RG4MJviADbERtLvWTuo3-3" value="Forecast Controller" style="whiteSpace=wrap;html=1;aspect=fixed;" parent="1" vertex="1">
          <mxGeometry x="-580" y="260" width="80" height="80" as="geometry" />
        </mxCell>
        <mxCell id="RG4MJviADbERtLvWTuo3-5" value="Shipping Controller" style="whiteSpace=wrap;html=1;aspect=fixed;" parent="1" vertex="1">
          <mxGeometry x="-730" y="260" width="80" height="80" as="geometry" />
        </mxCell>
        <mxCell id="RG4MJviADbERtLvWTuo3-6" value="" style="whiteSpace=wrap;html=1;aspect=fixed;dashed=1;" parent="1" vertex="1">
          <mxGeometry x="-360" y="320" width="190" height="190" as="geometry" />
        </mxCell>
        <mxCell id="RG4MJviADbERtLvWTuo3-9" value="DM API Webapp&lt;br&gt;IF08" style="whiteSpace=wrap;html=1;aspect=fixed;" parent="1" vertex="1">
          <mxGeometry x="-354" y="327" width="80" height="80" as="geometry" />
        </mxCell>
        <mxCell id="RG4MJviADbERtLvWTuo3-11" value="CHM API WebApp&lt;br&gt;IF20" style="whiteSpace=wrap;html=1;aspect=fixed;" parent="1" vertex="1">
          <mxGeometry x="-255" y="327" width="80" height="80" as="geometry" />
        </mxCell>
        <mxCell id="RG4MJviADbERtLvWTuo3-12" value="3PL API WebApp&lt;br&gt;IF67" style="whiteSpace=wrap;html=1;aspect=fixed;" parent="1" vertex="1">
          <mxGeometry x="-305" y="425" width="80" height="80" as="geometry" />
        </mxCell>
        <mxCell id="RG4MJviADbERtLvWTuo3-18" value="" style="endArrow=classic;html=1;rounded=0;exitX=1;exitY=0.5;exitDx=0;exitDy=0;entryX=0.5;entryY=0;entryDx=0;entryDy=0;" parent="1" source="RG4MJviADbERtLvWTuo3-3" target="RG4MJviADbERtLvWTuo3-11" edge="1">
          <mxGeometry relative="1" as="geometry">
            <mxPoint x="-310" y="350" as="sourcePoint" />
            <mxPoint x="-210" y="350" as="targetPoint" />
            <Array as="points">
              <mxPoint x="-215" y="300" />
            </Array>
          </mxGeometry>
        </mxCell>
        <mxCell id="RG4MJviADbERtLvWTuo3-19" value="ShareAggregatedCHForecast" style="edgeLabel;resizable=0;html=1;align=center;verticalAlign=middle;" parent="RG4MJviADbERtLvWTuo3-18" connectable="0" vertex="1">
          <mxGeometry relative="1" as="geometry" />
        </mxCell>
        <mxCell id="RG4MJviADbERtLvWTuo3-20" value="CHM" style="whiteSpace=wrap;html=1;aspect=fixed;fillColor=#fff2cc;strokeColor=#d6b656;" parent="1" vertex="1">
          <mxGeometry x="-80" y="340" width="70" height="70" as="geometry" />
        </mxCell>
        <mxCell id="RG4MJviADbERtLvWTuo3-21" value="" style="endArrow=classic;html=1;rounded=0;" parent="1" edge="1">
          <mxGeometry relative="1" as="geometry">
            <mxPoint x="-175" y="359.74" as="sourcePoint" />
            <mxPoint x="-75" y="359.74" as="targetPoint" />
          </mxGeometry>
        </mxCell>
        <mxCell id="RG4MJviADbERtLvWTuo3-22" value="OMSCHM-07" style="edgeLabel;resizable=0;html=1;align=center;verticalAlign=middle;" parent="RG4MJviADbERtLvWTuo3-21" connectable="0" vertex="1">
          <mxGeometry relative="1" as="geometry" />
        </mxCell>
        <mxCell id="RG4MJviADbERtLvWTuo3-26" value="User" style="shape=umlActor;verticalLabelPosition=bottom;verticalAlign=top;html=1;outlineConnect=0;" parent="1" vertex="1">
          <mxGeometry x="-800" y="600" width="30" height="60" as="geometry" />
        </mxCell>
        <mxCell id="RG4MJviADbERtLvWTuo3-33" value="Portal" style="whiteSpace=wrap;html=1;aspect=fixed;" parent="1" vertex="1">
          <mxGeometry x="-680" y="600" width="90" height="90" as="geometry" />
        </mxCell>
        <mxCell id="RG4MJviADbERtLvWTuo3-34" value="" style="endArrow=classic;html=1;rounded=0;exitX=0.5;exitY=1;exitDx=0;exitDy=0;entryX=1;entryY=0.5;entryDx=0;entryDy=0;" parent="1" source="RG4MJviADbERtLvWTuo3-3" target="RG4MJviADbERtLvWTuo3-33" edge="1">
          <mxGeometry width="50" height="50" relative="1" as="geometry">
            <mxPoint x="-590" y="420" as="sourcePoint" />
            <mxPoint x="-540" y="620.5128205128206" as="targetPoint" />
            <Array as="points">
              <mxPoint x="-540" y="645" />
            </Array>
          </mxGeometry>
        </mxCell>
        <mxCell id="poQWrlJ7AJOqRJS1i0pp-1" value="DB" style="shape=cylinder3;whiteSpace=wrap;html=1;boundedLbl=1;backgroundOutline=1;size=15;" vertex="1" parent="1">
          <mxGeometry x="-510" y="550" width="50" height="55" as="geometry" />
        </mxCell>
        <mxCell id="poQWrlJ7AJOqRJS1i0pp-2" value="" style="endArrow=classic;startArrow=classic;html=1;rounded=0;entryX=0.75;entryY=1;entryDx=0;entryDy=0;" edge="1" parent="1" source="poQWrlJ7AJOqRJS1i0pp-1" target="RG4MJviADbERtLvWTuo3-3">
          <mxGeometry width="50" height="50" relative="1" as="geometry">
            <mxPoint x="-400" y="420" as="sourcePoint" />
            <mxPoint x="-350" y="370" as="targetPoint" />
            <Array as="points">
              <mxPoint x="-485" y="370" />
              <mxPoint x="-520" y="370" />
            </Array>
          </mxGeometry>
        </mxCell>
        <mxCell id="poQWrlJ7AJOqRJS1i0pp-3" value="" style="endArrow=classic;html=1;rounded=0;exitX=-0.065;exitY=0.601;exitDx=0;exitDy=0;exitPerimeter=0;entryX=1.001;entryY=0.831;entryDx=0;entryDy=0;entryPerimeter=0;" edge="1" parent="1">
          <mxGeometry relative="1" as="geometry">
            <mxPoint x="-80.54999999999995" y="388.06999999999994" as="sourcePoint" />
            <mxPoint x="-174.92000000000007" y="386.48000000000013" as="targetPoint" />
          </mxGeometry>
        </mxCell>
        <mxCell id="poQWrlJ7AJOqRJS1i0pp-4" value="OMSCHM-09" style="edgeLabel;resizable=0;html=1;align=center;verticalAlign=middle;" connectable="0" vertex="1" parent="poQWrlJ7AJOqRJS1i0pp-3">
          <mxGeometry relative="1" as="geometry" />
        </mxCell>
        <mxCell id="poQWrlJ7AJOqRJS1i0pp-7" value="Queue" style="shape=cylinder3;whiteSpace=wrap;html=1;boundedLbl=1;backgroundOutline=1;size=15;rotation=90;labelPosition=center;verticalLabelPosition=middle;align=center;verticalAlign=middle;horizontal=0;" vertex="1" parent="1">
          <mxGeometry x="-305" y="660" width="60" height="80" as="geometry" />
        </mxCell>
        <mxCell id="poQWrlJ7AJOqRJS1i0pp-8" value="" style="endArrow=classic;html=1;rounded=0;entryX=0.5;entryY=0;entryDx=0;entryDy=0;entryPerimeter=0;exitX=0.75;exitY=1;exitDx=0;exitDy=0;" edge="1" parent="1" source="RG4MJviADbERtLvWTuo3-11" target="poQWrlJ7AJOqRJS1i0pp-7">
          <mxGeometry width="50" height="50" relative="1" as="geometry">
            <mxPoint x="-320" y="560" as="sourcePoint" />
            <mxPoint x="-270" y="510" as="targetPoint" />
            <Array as="points">
              <mxPoint x="-195" y="700" />
            </Array>
          </mxGeometry>
        </mxCell>
        <mxCell id="poQWrlJ7AJOqRJS1i0pp-9" value="Function App Handler" style="whiteSpace=wrap;html=1;aspect=fixed;" vertex="1" parent="1">
          <mxGeometry x="-434" y="660" width="80" height="80" as="geometry" />
        </mxCell>
      </root>
    </mxGraphModel>
  </diagram>
</mxfile>
